HIERARCHY
ROOT pelvis
{
	OFFSET 0.000000 0.000000 0.000000
	CHANNELS 6 Xposition Yposition Zposition Zrotation Xrotation Yrotation
	JOINT lfemur
	{
		OFFSET 11.446000 0.000000 0.000000
		CHANNELS 3 Zrotation Xrotation Yrotation
		JOINT ltibia
		{
			OFFSET 0.000000 -42.030400 0.000000
			CHANNELS 3 Zrotation Xrotation Yrotation
			JOINT lfoot
			{
				OFFSET 0.000000 -39.930200 0.000000
				CHANNELS 3 Zrotation Xrotation Yrotation
				JOINT ltoes
				{
					OFFSET 0.000000 0.000000 11.775800
					CHANNELS 3 Zrotation Xrotation Yrotation
					End Site
					{
					    OFFSET 0.000000 0.000000 5.000000
					}
				}
			}
		}
	}
	JOINT rfemur
	{
		OFFSET -11.446000 0.000000 0.000000
		CHANNELS 3 Zrotation Xrotation Yrotation
		JOINT rtibia
		{
			OFFSET 0.000000 -42.030400 0.000000
			CHANNELS 3 Zrotation Xrotation Yrotation
			JOINT rfoot
			{
				OFFSET 0.000000 -39.930200 0.000000
				CHANNELS 3 Zrotation Xrotation Yrotation
				JOINT rtoes
				{
					OFFSET 0.000000 0.000000 11.775800
					CHANNELS 3 Zrotation Xrotation Yrotation
					End Site
					{
					    OFFSET 0.000000 0.000000 5.000000
					}
				}
			}
		}
	}
	JOINT thorax
	{
		OFFSET 0.000000 11.255600 -5.000000
		CHANNELS 3 Zrotation Xrotation Yrotation
		JOINT head
		{
			OFFSET 0.000000 43.799300 0.000000
			CHANNELS 3 Zrotation Xrotation Yrotation
			End Site
			{
			    OFFSET 0.000000 5.000000 0.000000
			}
		}
		JOINT lclavicle
		{
			OFFSET 0.000000 39.863000 0.000000
			CHANNELS 3 Zrotation Xrotation Yrotation
			JOINT lhumerus
			{
				OFFSET 17.380600 4.958300 0.000000
				CHANNELS 3 Zrotation Xrotation Yrotation
				JOINT lradius
				{
					OFFSET 0.000000 -27.561300 0.000000
					CHANNELS 3 Zrotation Xrotation Yrotation
					JOINT lhand
					{
						OFFSET 0.000000 -26.933000 0.000000
						CHANNELS 3 Zrotation Xrotation Yrotation
						End Site
						{
						    OFFSET 0.000000 -5.000000 0.000000
						}
					}
				}
			}
		}
		JOINT rclavicle
		{
			OFFSET 0.000000 39.863000 0.000000
			CHANNELS 3 Zrotation Xrotation Yrotation
			JOINT rhumerus
			{
				OFFSET -17.380600 4.958300 0.000000
				CHANNELS 3 Zrotation Xrotation Yrotation
				JOINT rradius
				{
					OFFSET 0.000000 -27.561300 0.000000
					CHANNELS 3 Zrotation Xrotation Yrotation
					JOINT rhand
					{
						OFFSET 0.000000 -26.933000 0.000000
						CHANNELS 3 Zrotation Xrotation Yrotation
						End Site
						{
						    OFFSET 0.000000 -5.000000 0.000000
						}
					}
				}
			}
		}
	}
}
MOTION
Frames: 15
Frame Time:	0.0333333
183.654800 86.554800 2.610800 3.633097 -3.391981 -90.943374 -2.654297 -6.722782 -6.430736 0.000000 17.471023 -0.000000 -0.000000 0.353866 4.835145 -0.000000 -1.437981 -0.000000 2.144593 -5.746296 -1.947058 0.000000 16.780310 -0.000000 -0.000000 -3.482260 -0.945586 0.000000 -29.496345 -0.000000 -5.990734 5.451046 -2.232367 13.895554 20.931113 1.799140 -18.910049 -0.000000 -1.426388 29.848311 -3.862135 -5.943309 -0.000002 -28.847307 -36.959369 8.581872 -5.039810 0.000000 27.884195 0.000000 3.042019 -31.551679 8.420874 -10.668107 0.000000 -19.358288 30.183379 0.693964 -3.665440 -0.000000 
183.196700 86.345300 2.617600 3.932055 -2.943405 -89.838025 -2.401897 -8.582830 -6.236001 -0.000000 21.076544 -0.000000 -0.000000 -1.428237 4.608860 -0.000000 -1.427408 -0.000000 2.553810 -5.386003 -2.453243 -0.000000 16.580935 -0.000000 0.000000 -4.849385 -1.976413 -0.000000 -29.493583 -0.000000 -5.379066 5.735566 -2.294150 14.522662 20.403267 1.009383 -19.084362 0.000000 -1.571437 29.814992 -3.429784 -6.232024 0.000000 -29.368622 -37.053089 8.329954 -4.953152 0.000000 28.153111 -0.000000 3.086113 -31.892032 8.810543 -11.215063 0.000001 -19.371674 30.282115 0.582008 -3.627999 -0.000000 
182.936600 86.022100 2.693800 4.854192 -2.510503 -89.280847 -2.211206 -11.796214 -5.423711 -0.000000 25.860918 -0.000000 -0.000000 -3.091249 4.164611 -0.000000 -1.424459 0.000000 2.902694 -6.974643 -3.017610 0.000000 18.578393 0.000000 0.000000 -6.498462 -2.180348 -0.000000 -29.493893 -0.000000 -4.679634 5.633489 -1.918328 14.802207 19.942711 1.002799 -19.051380 -0.000000 -1.325784 29.278095 -3.224097 -5.757375 -0.000000 -29.004202 -37.174237 7.525706 -5.619480 0.000000 28.306166 0.000000 3.671719 -32.317313 9.010962 -12.057112 -0.000000 -18.873569 30.139804 0.688176 -3.669463 -0.000000 
182.572300 85.624400 2.859500 5.364788 -1.894928 -88.578191 -2.361808 -14.760892 -6.301318 -0.000000 31.121340 0.000000 -0.000000 -4.288080 4.493348 0.000000 -1.415367 -0.000000 3.372502 -8.011137 -3.270647 -0.000000 20.324006 -0.000000 -0.000000 -7.578722 -2.697736 0.000000 -29.492555 -0.000000 -3.564355 6.211573 -1.505932 14.827818 19.062219 1.128183 -18.962578 -0.000000 -1.317043 28.498219 -2.692545 -4.107838 0.000001 -27.538076 -37.116550 6.718677 -5.610088 -0.000000 28.682264 0.000000 4.478523 -33.355926 8.834607 -12.178186 -0.000001 -18.119994 31.371671 -0.177239 -3.372607 -0.000000 
182.076400 85.102800 3.076800 5.629192 -1.152496 -88.354498 -2.703874 -17.565462 -7.316267 0.000000 36.806422 0.000000 -0.000000 -5.651036 5.296026 0.000000 -1.417211 -0.000000 3.953013 -8.987199 -3.067444 -0.000000 22.661362 -0.000000 -0.000000 -8.830910 -3.507704 -0.000000 -29.492090 -0.000000 -2.069595 7.496744 -0.851187 14.618133 17.551643 1.500671 -18.898494 0.000000 -1.288636 27.994039 -1.663635 -2.087031 -0.000000 -25.586715 -35.376347 4.871351 -5.742103 0.000000 28.914555 0.000000 5.504389 -34.760497 7.645900 -12.531514 -0.000000 -17.529342 30.631898 -0.017337 -3.428618 -0.000000 
181.494000 84.450000 3.399000 5.970246 -0.620272 -88.708408 -3.448874 -20.422912 -8.079998 -0.000000 42.266059 -0.000000 0.000000 -6.793837 6.174381 -0.000000 -1.397115 -0.000000 4.338385 -10.443920 -2.607073 0.000000 25.729704 -0.000000 0.000000 -10.265685 -3.657711 -0.000000 -29.490895 0.000000 -0.757272 8.777788 -0.375144 14.161583 16.109079 2.498652 -18.819471 -0.000000 -1.038203 28.401821 1.131648 -0.300584 -0.000001 -23.256699 -36.875530 4.190311 -5.710707 -0.000000 29.226890 0.000000 6.403026 -36.435187 6.356582 -11.345639 0.000001 -19.747922 29.225786 -0.153880 -3.384402 0.000000 
180.778900 83.746900 3.674900 6.577145 -0.047959 -89.653283 -3.718782 -23.459715 -7.594952 0.000000 47.166994 -0.000000 -0.000000 -7.449281 6.694085 0.000000 -1.405034 -0.000000 5.241963 -11.854997 -0.268118 0.000000 28.442152 -0.000000 0.000000 -11.872774 -4.465996 -0.000000 -29.487306 -0.000000 0.392638 9.973466 0.192636 13.618315 14.546918 3.960049 -18.586692 0.000000 -0.752654 29.536504 5.520171 2.026382 -0.000000 -20.755302 -37.825838 4.216167 -5.648764 -0.000000 29.054351 -0.000000 6.677885 -37.641528 3.576038 -9.567931 0.000001 -23.312580 26.427253 -0.462344 -3.281785 0.000000 
179.800500 83.150800 4.129300 7.421527 0.346642 -91.105274 -4.197620 -26.399101 -7.414710 0.000000 51.003755 0.000000 -0.000000 -8.270464 7.679414 -0.000000 -1.373216 0.000000 5.738717 -12.964013 1.214468 0.000000 30.323502 -0.000000 -0.000000 -13.263599 -4.581656 -0.000000 -29.488132 -0.000000 1.353472 10.949968 0.803581 13.042125 13.297196 5.767671 -18.977346 -0.000000 -0.115700 31.716842 10.835271 5.063999 0.000000 -17.321088 -39.013475 5.089519 -6.197015 -0.000000 28.500944 0.000000 6.508463 -38.328554 0.657223 -7.039420 0.000001 -29.821268 22.762615 -0.411427 -3.300319 0.000000 
178.528200 82.806300 4.671300 8.819254 0.171379 -92.588283 -5.018773 -29.514331 -7.186678 -0.000000 53.465523 -0.000000 0.000000 -8.117801 7.523391 0.000000 -1.371862 -0.000000 5.434092 -13.656747 2.081137 -0.000000 30.722815 -0.000000 -0.000000 -14.460628 -3.891058 0.000000 -29.486561 -0.000000 1.395689 11.327884 1.467025 12.982900 12.333319 7.203815 -18.972900 -0.000000 0.904943 33.950446 15.838370 10.189184 -0.000000 -13.114380 -41.530170 5.284556 -5.541645 -0.000000 27.763827 0.000000 5.785582 -38.729336 -1.838135 -2.916146 -0.000001 -39.417122 18.388819 -0.433940 -3.299061 0.000000 
176.605000 83.060300 5.106800 10.283447 -0.125276 -93.640534 -5.644769 -31.556378 -6.953130 -0.000000 53.356530 -0.000000 -0.000000 -7.918159 7.196212 -0.000000 -1.389021 0.000000 4.571307 -12.188578 1.383549 -0.000000 27.310864 -0.000000 0.000000 -14.076673 -2.329292 -0.000000 -29.489471 0.000000 0.838583 10.817944 2.128898 13.381715 12.738745 7.671724 -18.973634 -0.000000 1.597071 36.726391 21.194427 15.611015 -0.000001 -9.228682 -44.812608 5.732771 -5.092981 -0.000000 27.205710 0.000000 6.445168 -38.806998 -1.177563 -0.745685 -0.000000 -51.644450 15.509173 -1.665026 -2.885016 0.000000 
173.945800 83.902200 5.464600 11.524363 -1.011853 -93.896110 -6.753758 -31.899196 -6.830252 -0.000000 50.532335 0.000000 -0.000000 -7.220174 6.605508 -0.000000 -1.412386 -0.000000 2.976485 -8.361806 0.012385 -0.000000 20.239596 -0.000000 0.000000 -11.606529 -0.958213 -0.000000 -29.497575 -0.000000 -0.871952 10.009378 2.683849 14.500622 13.530774 7.369160 -18.652862 -0.000000 2.652788 39.654288 25.913112 18.602322 0.000000 -8.180825 -44.325519 5.348459 -4.673072 -0.000000 26.602729 0.000000 4.989103 -37.907710 -1.056403 1.346547 -0.000003 -64.122753 13.035616 -1.416856 -2.970042 0.000000 
170.747600 84.853600 5.939600 12.499462 -2.911732 -93.477189 -9.057424 -30.736025 -6.844277 0.000000 45.601074 0.000000 -0.000000 -5.583570 5.876173 -0.000000 -1.436970 -0.000000 0.377923 -3.335571 -1.051317 -0.000000 11.860068 -0.000000 0.000000 -7.439951 -0.607826 0.000000 -29.510549 -0.000000 -4.008569 8.828434 3.177866 16.267111 14.285036 5.723082 -18.233811 0.000000 3.333547 42.769171 29.488591 21.068382 -0.000000 -7.494786 -44.904280 5.223839 -4.952464 -0.000000 26.012737 -0.000000 3.652204 -36.777114 0.629307 3.093274 0.000001 -76.580746 11.553802 -1.323428 -3.002213 0.000000 
167.723900 85.356700 6.432000 13.987626 -4.714650 -93.419778 -10.743907 -30.185660 -5.849289 -0.000000 41.204153 -0.000000 0.000000 -2.766189 5.711137 0.000000 -1.482286 -0.000000 -1.875503 -1.323792 -0.024906 -0.000000 9.108990 0.000000 -0.000000 -4.755526 -1.500292 0.000000 -29.511898 -0.000000 -6.797024 7.899678 3.447046 16.702156 14.605950 4.649366 -18.898633 -0.000000 3.891536 46.458118 30.739998 21.994167 0.000000 -5.737582 -47.360871 6.090255 -4.803022 -0.000000 24.911817 0.000000 3.157051 -35.683975 2.027593 4.940622 0.000024 -88.572449 11.112186 -1.036491 -3.102402 0.000000 
165.217200 85.024500 6.869700 15.448318 -4.985148 -93.926906 -10.438575 -30.554309 -3.852148 0.000000 39.467915 -0.000000 0.000000 -0.646693 5.797347 -0.000000 -1.483845 -0.000000 -2.099900 -4.328457 2.536130 0.000000 18.359450 0.000000 0.000000 -6.462126 -5.687483 0.000000 -29.504719 -0.000000 -7.602927 7.499348 4.319626 15.829912 14.261746 4.376213 -20.686340 0.000000 3.761970 49.536489 31.021010 20.638920 0.000000 -6.082360 -43.733310 7.189938 -3.589467 0.000000 24.377771 0.000000 3.511431 -36.388476 4.441858 6.656573 180.000033 -79.177886 -169.476747 -2.262968 -2.693266 0.000000 
163.083100 83.660000 7.440400 15.923162 -4.952995 -94.316322 -10.394496 -30.425830 -1.946940 0.000000 41.544443 0.000000 0.000000 -5.017165 5.493910 -0.000000 -1.411470 -0.000000 -1.812938 -9.710676 3.731666 0.000000 34.527747 0.000000 -0.000000 -8.776044 -7.572311 -0.000000 -29.500843 -0.000000 -7.855929 9.479817 3.955824 14.346053 12.865093 5.058195 -21.395799 -0.000000 4.327104 48.937253 27.764587 19.678624 0.000000 -6.482839 -41.527152 7.734424 -3.868764 -0.000000 23.338748 0.000000 4.614967 -36.257523 5.369735 7.850011 180.000037 -71.694299 -173.741982 -3.003419 -2.451147 -0.000000 
